<svg width="433" height="96" viewBox="0 0 433 96" fill="none" xmlns="http://www.w3.org/2000/svg">
<path d="M15.0095 76.561C13.3545 77.8528 10.967 77.6561 9.6842 75.9941C4.75548 69.6082 1.57622 62.1772 0.453278 54.3483C-0.841735 45.3198 0.651537 36.1348 4.75868 27.8663C8.86583 19.5978 15.4173 12.587 23.6479 7.6528C31.8784 2.71863 41.4483 0.0647593 51.2398 0.00116974C61.0312 -0.0624198 70.64 2.46689 78.9438 7.29369C87.2477 12.1205 93.9037 19.0455 98.1346 27.2599C102.365 35.4743 103.996 44.6389 102.837 53.6834C101.832 61.5232 98.7665 68.9922 93.9372 75.4399C92.677 77.1224 90.2892 77.3527 88.6144 76.0821C86.7632 74.6776 86.5094 72.0064 87.8481 70.1071C91.5102 64.9111 93.8435 58.9809 94.6391 52.774C95.613 45.1767 94.2429 37.4784 90.689 30.5783C87.1351 23.6782 81.544 17.8612 74.5688 13.8067C67.5936 9.75219 59.5222 7.62757 51.2974 7.68098C43.0726 7.7344 35.0339 9.96365 28.1202 14.1084C21.2065 18.2531 15.7033 24.1421 12.2533 31.0877C8.80329 38.0333 7.54894 45.7486 8.63675 53.3326C9.5258 59.5308 11.9493 65.4321 15.6913 70.5813C17.0564 72.4596 16.8398 75.1323 15.0095 76.561Z" fill="#E50914"/>
<path d="M24.7497 68.9775C23.4602 69.985 21.5872 69.7622 20.686 68.3964C17.8079 64.0342 15.8792 59.1022 15.0401 53.9213C14.2009 48.7403 14.4743 43.4517 15.8283 38.404C16.2523 36.8235 17.9593 36.021 19.5008 36.5699C21.0424 37.1188 21.8323 38.8114 21.4324 40.3981C20.399 44.4992 20.2101 48.7785 20.8896 52.9738C21.5691 57.1691 23.0991 61.1701 25.3742 64.7353C26.2545 66.1147 26.0392 67.9701 24.7497 68.9775Z" fill="#E50914" fill-opacity="0.76"/>
<path d="M78.4503 68.9775C79.7398 69.985 81.6128 69.7622 82.514 68.3964C85.3921 64.0342 87.3208 59.1022 88.16 53.9213C88.9991 48.7403 88.7258 43.4517 87.3717 38.404C86.9477 36.8235 85.2407 36.021 83.6992 36.5699C82.1576 37.1188 81.3677 38.8114 81.7676 40.3981C82.801 44.4992 82.9899 48.7785 82.3104 52.9738C81.6309 57.1691 80.1009 61.1701 77.8258 64.7353C76.9456 66.1147 77.1608 67.9701 78.4503 68.9775Z" fill="#E50914" fill-opacity="0.76"/>
<path d="M73.4602 61.6599C74.3969 62.2452 75.6378 61.9634 76.1542 60.987C77.7483 57.973 78.7767 54.6859 79.1817 51.289C79.5868 47.8921 79.3602 44.4554 78.5195 41.1511C78.2471 40.0806 77.1074 39.5149 76.0593 39.8635L75.6376 40.0038C74.5895 40.3525 74.0315 41.4835 74.2891 42.5576C74.932 45.2376 75.0962 48.0157 74.7686 50.7628C74.441 53.5099 73.6282 56.1715 72.3732 58.6252C71.8702 59.6086 72.1467 60.8391 73.0834 61.4244L73.4602 61.6599Z" fill="#E50914" fill-opacity="0.52"/>
<path d="M29.7398 61.6599C28.8031 62.2452 27.5622 61.9634 27.0458 60.987C25.4517 57.973 24.4234 54.6859 24.0183 51.289C23.6132 47.8921 23.8398 44.4554 24.6805 41.1511C24.9529 40.0806 26.0926 39.5149 27.1407 39.8635L27.5624 40.0038C28.6105 40.3525 29.1685 41.4835 28.9109 42.5576C28.268 45.2376 28.1038 48.0157 28.4314 50.7628C28.759 53.5099 29.5718 56.1715 30.8268 58.6252C31.3298 59.6086 31.0534 60.8391 30.1166 61.4244L29.7398 61.6599Z" fill="#E50914" fill-opacity="0.52"/>
<path d="M156.044 42.254C158.425 42.63 160.587 43.6013 162.53 45.168C164.535 46.7347 166.102 48.6773 167.23 50.996C168.421 53.3147 169.016 55.79 169.016 58.422C169.016 61.7433 168.17 64.7513 166.478 67.446C164.786 70.078 162.311 72.1773 159.052 73.744C155.856 75.248 152.065 76 147.678 76H123.238V10.482H146.738C151.187 10.482 154.979 11.234 158.112 12.738C161.245 14.1793 163.595 16.1533 165.162 18.66C166.729 21.1667 167.512 23.9867 167.512 27.12C167.512 31.0053 166.447 34.2327 164.316 36.802C162.248 39.3087 159.491 41.126 156.044 42.254ZM131.792 38.776H146.174C150.185 38.776 153.287 37.836 155.48 35.956C157.673 34.076 158.77 31.4753 158.77 28.154C158.77 24.8327 157.673 22.232 155.48 20.352C153.287 18.472 150.122 17.532 145.986 17.532H131.792V38.776ZM146.926 68.95C151.187 68.95 154.509 67.9473 156.89 65.942C159.271 63.9367 160.462 61.148 160.462 57.576C160.462 53.9413 159.209 51.09 156.702 49.022C154.195 46.8913 150.843 45.826 146.644 45.826H131.792V68.95H146.926ZM223.186 48.27C223.186 49.8993 223.092 51.6227 222.904 53.44H181.732C182.046 58.516 183.769 62.4953 186.902 65.378C190.098 68.198 193.952 69.608 198.464 69.608C202.162 69.608 205.232 68.762 207.676 67.07C210.183 65.3153 211.938 62.9967 212.94 60.114H222.152C220.774 65.0647 218.016 69.1067 213.88 72.24C209.744 75.3107 204.606 76.846 198.464 76.846C193.576 76.846 189.19 75.7493 185.304 73.556C181.482 71.3627 178.474 68.2607 176.28 64.25C174.087 60.1767 172.99 55.4767 172.99 50.15C172.99 44.8233 174.056 40.1547 176.186 36.144C178.317 32.1333 181.294 29.0627 185.116 26.932C189.002 24.7387 193.451 23.642 198.464 23.642C203.352 23.642 207.676 24.7073 211.436 26.838C215.196 28.9687 218.079 31.914 220.084 35.674C222.152 39.3713 223.186 43.57 223.186 48.27ZM214.35 46.484C214.35 43.2253 213.63 40.4367 212.188 38.118C210.747 35.7367 208.773 33.9507 206.266 32.76C203.822 31.5067 201.096 30.88 198.088 30.88C193.764 30.88 190.067 32.2587 186.996 35.016C183.988 37.7733 182.265 41.596 181.826 46.484H214.35ZM226.581 50.056C226.581 44.792 227.647 40.186 229.777 36.238C231.908 32.2273 234.822 29.1253 238.519 26.932C242.279 24.7387 246.447 23.642 251.021 23.642C255.533 23.642 259.45 24.6133 262.771 26.556C266.093 28.4987 268.568 30.9427 270.197 33.888V24.488H278.845V76H270.197V66.412C268.505 69.42 265.967 71.9267 262.583 73.932C259.262 75.8747 255.377 76.846 250.927 76.846C246.353 76.846 242.217 75.718 238.519 73.462C234.822 71.206 231.908 68.0413 229.777 63.968C227.647 59.8947 226.581 55.2573 226.581 50.056ZM270.197 50.15C270.197 46.2647 269.414 42.8807 267.847 39.998C266.281 37.1153 264.15 34.922 261.455 33.418C258.823 31.8513 255.909 31.068 252.713 31.068C249.517 31.068 246.603 31.82 243.971 33.324C241.339 34.828 239.24 37.0213 237.673 39.904C236.107 42.7867 235.323 46.1707 235.323 50.056C235.323 54.004 236.107 57.4507 237.673 60.396C239.24 63.2787 241.339 65.5033 243.971 67.07C246.603 68.574 249.517 69.326 252.713 69.326C255.909 69.326 258.823 68.574 261.455 67.07C264.15 65.5033 266.281 63.2787 267.847 60.396C269.414 57.4507 270.197 54.0353 270.197 50.15ZM299.035 31.538V61.9C299.035 64.4067 299.568 66.1927 300.633 67.258C301.698 68.2607 303.547 68.762 306.179 68.762H312.477V76H304.769C300.006 76 296.434 74.9033 294.053 72.71C291.672 70.5167 290.481 66.9133 290.481 61.9V31.538H283.807V24.488H290.481V11.516H299.035V24.488H312.477V31.538H299.035ZM343.239 23.548C349.506 23.548 354.582 25.4593 358.467 29.282C362.352 33.042 364.295 38.494 364.295 45.638V76H355.835V46.86C355.835 41.7213 354.55 37.8047 351.981 35.11C349.412 32.3527 345.902 30.974 341.453 30.974C336.941 30.974 333.338 32.384 330.643 35.204C328.011 38.024 326.695 42.1287 326.695 47.518V76H318.141V24.488H326.695V31.82C328.387 29.188 330.674 27.1513 333.557 25.71C336.502 24.2687 339.73 23.548 343.239 23.548ZM377.986 16.122C376.357 16.122 374.978 15.558 373.85 14.43C372.722 13.302 372.158 11.9233 372.158 10.294C372.158 8.66466 372.722 7.286 373.85 6.158C374.978 5.03 376.357 4.466 377.986 4.466C379.553 4.466 380.869 5.03 381.934 6.158C383.062 7.286 383.626 8.66466 383.626 10.294C383.626 11.9233 383.062 13.302 381.934 14.43C380.869 15.558 379.553 16.122 377.986 16.122ZM382.122 24.488V76H373.568V24.488H382.122ZM420.765 76L400.555 53.252V76H392.001V6.44H400.555V47.33L420.389 24.488H432.327L408.075 50.15L432.421 76H420.765Z" fill="white"/>
</svg>
