<svg width="117" height="109" viewBox="0 0 117 109" fill="none" xmlns="http://www.w3.org/2000/svg">
<rect width="117" height="109" rx="8" fill="#160010"/>
<path d="M22.0095 89.561C20.3545 90.8528 17.967 90.6561 16.6842 88.9941C11.7555 82.6082 8.57622 75.1772 7.45328 67.3483C6.15826 58.3198 7.65154 49.1348 11.7587 40.8663C15.8658 32.5978 22.4173 25.587 30.6479 20.6528C38.8784 15.7186 48.4483 13.0648 58.2398 13.0012C68.0312 12.9376 77.64 15.4669 85.9438 20.2937C94.2477 25.1205 100.904 32.0455 105.135 40.2599C109.365 48.4743 110.996 57.6389 109.837 66.6834C108.832 74.5232 105.767 81.9922 100.937 88.4399C99.677 90.1224 97.2892 90.3527 95.6144 89.0821V89.0821C93.7632 87.6776 93.5094 85.0064 94.8481 83.1071C98.5102 77.9111 100.843 71.9809 101.639 65.774C102.613 58.1767 101.243 50.4784 97.689 43.5783C94.1351 36.6782 88.544 30.8612 81.5688 26.8067C74.5936 22.7522 66.5222 20.6276 58.2974 20.681C50.0726 20.7344 42.0339 22.9636 35.1202 27.1084C28.2065 31.2531 22.7033 37.1421 19.2533 44.0877C15.8033 51.0333 14.5489 58.7486 15.6368 66.3326C16.5258 72.5308 18.9493 78.4321 22.6913 83.5813C24.0564 85.4597 23.8398 88.1323 22.0095 89.561V89.561Z" fill="#E50914"/>
<path d="M31.7497 81.9775C30.4602 82.985 28.5872 82.7622 27.686 81.3964C24.8079 77.0342 22.8792 72.1022 22.0401 66.9213C21.2009 61.7403 21.4743 56.4517 22.8283 51.404C23.2523 49.8235 24.9593 49.021 26.5008 49.5699V49.5699C28.0424 50.1188 28.8323 51.8114 28.4324 53.3981C27.399 57.4992 27.2101 61.7786 27.8896 65.9738C28.5691 70.1691 30.0991 74.1701 32.3742 77.7353C33.2545 79.1147 33.0392 80.9701 31.7497 81.9775V81.9775Z" fill="#E50914" fill-opacity="0.76"/>
<path d="M85.4503 81.9775C86.7398 82.985 88.6128 82.7622 89.514 81.3964C92.3921 77.0342 94.3208 72.1022 95.16 66.9213C95.9991 61.7403 95.7258 56.4517 94.3717 51.404C93.9477 49.8235 92.2407 49.021 90.6992 49.5699V49.5699C89.1576 50.1188 88.3677 51.8114 88.7676 53.3981C89.801 57.4992 89.9899 61.7786 89.3104 65.9738C88.6309 70.1691 87.1009 74.1701 84.8258 77.7353C83.9456 79.1147 84.1608 80.9701 85.4503 81.9775V81.9775Z" fill="#E50914" fill-opacity="0.76"/>
<path d="M80.4602 74.6599C81.3969 75.2452 82.6378 74.9634 83.1542 73.987C84.7483 70.973 85.7767 67.6859 86.1817 64.289C86.5868 60.8921 86.3602 57.4554 85.5195 54.1511C85.2471 53.0806 84.1074 52.5149 83.0593 52.8635L82.6376 53.0038C81.5895 53.3525 81.0315 54.4835 81.2891 55.5576C81.932 58.2376 82.0962 61.0157 81.7686 63.7628C81.441 66.5099 80.6282 69.1715 79.3732 71.6252C78.8702 72.6086 79.1467 73.8391 80.0834 74.4244L80.4602 74.6599Z" fill="#E50914" fill-opacity="0.52"/>
<path d="M36.7398 74.6599C35.8031 75.2452 34.5622 74.9634 34.0458 73.987C32.4517 70.973 31.4234 67.6859 31.0183 64.289C30.6132 60.8921 30.8398 57.4554 31.6805 54.1511C31.9529 53.0806 33.0926 52.5149 34.1407 52.8635L34.5624 53.0038C35.6105 53.3525 36.1685 54.4835 35.9109 55.5576C35.268 58.2376 35.1038 61.0157 35.4314 63.7628C35.759 66.5099 36.5718 69.1715 37.8268 71.6252C38.3298 72.6086 38.0534 73.8391 37.1166 74.4244L36.7398 74.6599Z" fill="#E50914" fill-opacity="0.52"/>
</svg>
